<svg width="143" height="32" viewBox="0 0 143 32" fill="none" xmlns="http://www.w3.org/2000/svg">
<path d="M48.9128 24.24C47.8728 24.24 46.8995 24.0533 45.9928 23.68C45.0995 23.2933 44.3128 22.76 43.6328 22.08C42.9528 21.3867 42.4195 20.5733 42.0328 19.64C41.6461 18.6933 41.4528 17.66 41.4528 16.54C41.4528 15.42 41.6461 14.3933 42.0328 13.46C42.4195 12.5133 42.9528 11.7 43.6328 11.02C44.3128 10.3267 45.0995 9.79333 45.9928 9.42C46.8995 9.04667 47.8728 8.86 48.9128 8.86C49.9528 8.86 50.9195 9.05333 51.8128 9.44C52.7195 9.81333 53.5128 10.3467 54.1928 11.04C54.8728 11.72 55.4061 12.5267 55.7928 13.46C56.1795 14.3933 56.3728 15.42 56.3728 16.54C56.3728 17.66 56.1795 18.6933 55.7928 19.64C55.4061 20.5733 54.8728 21.3867 54.1928 22.08C53.5128 22.76 52.7195 23.2933 51.8128 23.68C50.9195 24.0533 49.9528 24.24 48.9128 24.24ZM48.9128 22.74C49.7795 22.74 50.5661 22.58 51.2728 22.26C51.9928 21.94 52.6128 21.4933 53.1328 20.92C53.6528 20.3467 54.0528 19.6867 54.3328 18.94C54.6261 18.1933 54.7728 17.3933 54.7728 16.54C54.7728 15.7 54.6261 14.9067 54.3328 14.16C54.0528 13.4133 53.6528 12.7533 53.1328 12.18C52.6128 11.6067 51.9928 11.16 51.2728 10.84C50.5661 10.52 49.7795 10.36 48.9128 10.36C48.0461 10.36 47.2528 10.52 46.5328 10.84C45.8261 11.16 45.2128 11.6067 44.6928 12.18C44.1728 12.7533 43.7661 13.4133 43.4728 14.16C43.1928 14.9067 43.0528 15.7 43.0528 16.54C43.0528 17.3933 43.1928 18.1933 43.4728 18.94C43.7661 19.6867 44.1728 20.3467 44.6928 20.92C45.2128 21.4933 45.8328 21.94 46.5528 22.26C47.2728 22.58 48.0595 22.74 48.9128 22.74ZM59.2314 24V13.28H60.7314V15.04L60.5314 14.78C60.7847 14.2733 61.1647 13.8733 61.6714 13.58C62.1914 13.2867 62.8181 13.14 63.5514 13.14H64.2314V14.64H63.2914C62.5181 14.64 61.8981 14.88 61.4314 15.36C60.9647 15.84 60.7314 16.52 60.7314 17.4V24H59.2314ZM70.8292 24.24C69.8292 24.24 68.9292 24 68.1292 23.52C67.3292 23.0267 66.6959 22.36 66.2292 21.52C65.7759 20.6667 65.5492 19.7067 65.5492 18.64C65.5492 17.56 65.7759 16.6 66.2292 15.76C66.6959 14.92 67.3226 14.26 68.1092 13.78C68.9092 13.2867 69.8159 13.04 70.8292 13.04C71.7492 13.04 72.5692 13.24 73.2892 13.64C74.0092 14.04 74.5759 14.58 74.9892 15.26L74.7492 15.68V8.86H76.2492V24H74.7492V21.6L74.9892 21.82C74.6159 22.5933 74.0559 23.1933 73.3092 23.62C72.5759 24.0333 71.7492 24.24 70.8292 24.24ZM70.9092 22.74C71.6292 22.74 72.2759 22.56 72.8492 22.2C73.4359 21.84 73.8959 21.3533 74.2292 20.74C74.5759 20.1133 74.7492 19.4133 74.7492 18.64C74.7492 17.8667 74.5759 17.1733 74.2292 16.56C73.8959 15.9333 73.4359 15.44 72.8492 15.08C72.2759 14.72 71.6292 14.54 70.9092 14.54C70.2026 14.54 69.5626 14.72 68.9892 15.08C68.4159 15.44 67.9626 15.9267 67.6292 16.54C67.3092 17.1533 67.1492 17.8533 67.1492 18.64C67.1492 19.4133 67.3092 20.1133 67.6292 20.74C67.9626 21.3533 68.4092 21.84 68.9692 22.2C69.5426 22.56 70.1892 22.74 70.9092 22.74ZM84.2091 24.24C83.2091 24.24 82.3024 24 81.4891 23.52C80.6891 23.0267 80.0557 22.3533 79.5891 21.5C79.1224 20.6467 78.8891 19.68 78.8891 18.6C78.8891 17.52 79.1157 16.5667 79.5691 15.74C80.0224 14.9 80.6357 14.24 81.4091 13.76C82.1957 13.28 83.0757 13.04 84.0491 13.04C84.8224 13.04 85.5091 13.1867 86.1091 13.48C86.7224 13.76 87.2424 14.1467 87.6691 14.64C88.0957 15.12 88.4224 15.6667 88.6491 16.28C88.8757 16.88 88.9891 17.5 88.9891 18.14C88.9891 18.2733 88.9824 18.4267 88.9691 18.6C88.9557 18.76 88.9357 18.9267 88.9091 19.1H79.8491V17.7H88.0491L87.3291 18.3C87.4491 17.5667 87.3624 16.9133 87.0691 16.34C86.7891 15.7533 86.3824 15.2933 85.8491 14.96C85.3157 14.6133 84.7157 14.44 84.0491 14.44C83.3824 14.44 82.7624 14.6133 82.1891 14.96C81.6291 15.3067 81.1891 15.7933 80.8691 16.42C80.5491 17.0333 80.4224 17.7667 80.4891 18.62C80.4224 19.4733 80.5557 20.22 80.8891 20.86C81.2357 21.4867 81.7024 21.9733 82.2891 22.32C82.8891 22.6667 83.5291 22.84 84.2091 22.84C84.9957 22.84 85.6557 22.6533 86.1891 22.28C86.7224 21.9067 87.1557 21.44 87.4891 20.88L88.7691 21.56C88.5557 22.04 88.2291 22.4867 87.7891 22.9C87.3491 23.3 86.8224 23.6267 86.2091 23.88C85.6091 24.12 84.9424 24.24 84.2091 24.24ZM91.6338 24V13.28H93.1338V15.04L92.9338 14.78C93.1871 14.2733 93.5671 13.8733 94.0738 13.58C94.5938 13.2867 95.2204 13.14 95.9538 13.14H96.6338V14.64H95.6938C94.9204 14.64 94.3004 14.88 93.8338 15.36C93.3671 15.84 93.1338 16.52 93.1338 17.4V24H91.6338ZM98.2916 24V9.1H108.192V11.5H101.012V15.32H107.792V17.72H101.012V21.6H108.192V24H98.2916ZM113.266 24.24C112.506 24.24 111.846 24.1133 111.286 23.86C110.726 23.6067 110.293 23.2467 109.986 22.78C109.679 22.3 109.526 21.7467 109.526 21.12C109.526 20.52 109.659 19.9867 109.926 19.52C110.193 19.04 110.606 18.64 111.166 18.32C111.726 18 112.433 17.7733 113.286 17.64L116.846 17.06V19.06L113.786 19.58C113.266 19.6733 112.879 19.84 112.626 20.08C112.373 20.32 112.246 20.6333 112.246 21.02C112.246 21.3933 112.386 21.6933 112.666 21.92C112.959 22.1333 113.319 22.24 113.746 22.24C114.293 22.24 114.773 22.1267 115.186 21.9C115.613 21.66 115.939 21.3333 116.166 20.92C116.406 20.5067 116.526 20.0533 116.526 19.56V16.76C116.526 16.2933 116.339 15.9067 115.966 15.6C115.606 15.28 115.126 15.12 114.526 15.12C113.966 15.12 113.466 15.2733 113.026 15.58C112.599 15.8733 112.286 16.2667 112.086 16.76L109.946 15.72C110.159 15.1467 110.493 14.6533 110.946 14.24C111.413 13.8133 111.959 13.48 112.586 13.24C113.213 13 113.893 12.88 114.626 12.88C115.519 12.88 116.306 13.0467 116.986 13.38C117.666 13.7 118.193 14.1533 118.566 14.74C118.953 15.3133 119.146 15.9867 119.146 16.76V24H116.666V22.14L117.226 22.1C116.946 22.5667 116.613 22.96 116.226 23.28C115.839 23.5867 115.399 23.8267 114.906 24C114.413 24.16 113.866 24.24 113.266 24.24ZM125.708 24.24C124.548 24.24 123.534 23.9667 122.668 23.42C121.814 22.86 121.228 22.1067 120.908 21.16L122.868 20.22C123.148 20.8333 123.534 21.3133 124.028 21.66C124.534 22.0067 125.094 22.18 125.708 22.18C126.188 22.18 126.568 22.0733 126.848 21.86C127.128 21.6467 127.268 21.3667 127.268 21.02C127.268 20.8067 127.208 20.6333 127.088 20.5C126.981 20.3533 126.828 20.2333 126.628 20.14C126.441 20.0333 126.234 19.9467 126.008 19.88L124.228 19.38C123.308 19.1133 122.608 18.7067 122.128 18.16C121.661 17.6133 121.428 16.9667 121.428 16.22C121.428 15.5533 121.594 14.9733 121.928 14.48C122.274 13.9733 122.748 13.58 123.348 13.3C123.961 13.02 124.661 12.88 125.448 12.88C126.474 12.88 127.381 13.1267 128.168 13.62C128.954 14.1133 129.514 14.8067 129.848 15.7L127.848 16.64C127.661 16.1467 127.348 15.7533 126.908 15.46C126.468 15.1667 125.974 15.02 125.428 15.02C124.988 15.02 124.641 15.12 124.388 15.32C124.134 15.52 124.008 15.78 124.008 16.1C124.008 16.3 124.061 16.4733 124.168 16.62C124.274 16.7667 124.421 16.8867 124.608 16.98C124.808 17.0733 125.034 17.16 125.288 17.24L127.028 17.76C127.921 18.0267 128.608 18.4267 129.088 18.96C129.581 19.4933 129.828 20.1467 129.828 20.92C129.828 21.5733 129.654 22.1533 129.308 22.66C128.961 23.1533 128.481 23.54 127.868 23.82C127.254 24.1 126.534 24.24 125.708 24.24ZM137.001 24.24C135.881 24.24 134.901 23.9867 134.061 23.48C133.221 22.9733 132.568 22.2867 132.101 21.42C131.634 20.5533 131.401 19.5933 131.401 18.54C131.401 17.4467 131.634 16.48 132.101 15.64C132.581 14.7867 133.228 14.1133 134.041 13.62C134.868 13.1267 135.788 12.88 136.801 12.88C137.654 12.88 138.401 13.02 139.041 13.3C139.694 13.58 140.248 13.9667 140.701 14.46C141.154 14.9533 141.501 15.52 141.741 16.16C141.981 16.7867 142.101 17.4667 142.101 18.2C142.101 18.3867 142.088 18.58 142.061 18.78C142.048 18.98 142.014 19.1533 141.961 19.3H133.561V17.3H140.481L139.241 18.24C139.361 17.6267 139.328 17.08 139.141 16.6C138.968 16.12 138.674 15.74 138.261 15.46C137.861 15.18 137.374 15.04 136.801 15.04C136.254 15.04 135.768 15.18 135.341 15.46C134.914 15.7267 134.588 16.1267 134.361 16.66C134.148 17.18 134.068 17.8133 134.121 18.56C134.068 19.2267 134.154 19.82 134.381 20.34C134.621 20.8467 134.968 21.24 135.421 21.52C135.888 21.8 136.421 21.94 137.021 21.94C137.621 21.94 138.128 21.8133 138.541 21.56C138.968 21.3067 139.301 20.9667 139.541 20.54L141.661 21.58C141.448 22.1 141.114 22.56 140.661 22.96C140.208 23.36 139.668 23.6733 139.041 23.9C138.428 24.1267 137.748 24.24 137.001 24.24Z" fill="#1C1934"/>
<path fill-rule="evenodd" clip-rule="evenodd" d="M24 0C28.4183 0 32 3.58172 32 8V24C32 28.4183 28.4183 32 24 32H8C3.58172 32 0 28.4183 0 24V8C0 3.58172 3.58172 0 8 0H24ZM26.2484 21.8777C26.5364 22.0801 26.7812 22.3378 26.9684 22.6358C27.1926 23.005 27.3231 23.4234 27.3486 23.8545C27.374 24.2857 27.2936 24.7165 27.1144 25.1094C26.9352 25.5024 26.6626 25.8455 26.3204 26.109C25.9782 26.3725 25.5767 26.5482 25.151 26.621C24.7253 26.6937 24.2883 26.6613 23.878 26.5264C23.4676 26.3916 23.0966 26.1584 22.797 25.8473C22.4975 25.5361 22.2786 25.1565 22.1594 24.7414C22.0402 24.3263 22.0244 23.8883 22.1132 23.4657C22.2633 22.81 22.2825 22.1312 22.1697 21.4682C22.0569 20.8051 21.8144 20.1709 21.456 19.6017C21.0976 19.0326 20.6305 18.5397 20.0812 18.1515C19.532 17.7633 18.9116 17.4872 18.2555 17.3392C17.7484 17.216 17.2889 16.9456 16.9349 16.5621C16.5809 16.1786 16.3481 15.699 16.2658 15.1836C16.1835 14.6682 16.2553 14.14 16.4722 13.6653C16.6891 13.1906 17.0414 12.7906 17.4849 12.5154C17.9284 12.2403 18.4433 12.1023 18.965 12.1189C19.4866 12.1355 19.9918 12.3058 20.417 12.6085C20.8421 12.9111 21.1684 13.3327 21.3547 13.8203C21.5411 14.3078 21.5792 14.8395 21.4644 15.3486C21.1657 16.6658 21.4005 18.0478 22.1175 19.1925C22.8346 20.3371 23.9756 21.1514 25.2912 21.4573C25.635 21.5325 25.9605 21.6754 26.2484 21.8777ZM10.6857 19.6875C10.6857 19.6929 10.6887 19.6978 10.6934 19.7004C11.1548 19.9502 11.6801 20.0574 12.2027 20.0082C12.7281 19.9587 13.2268 19.7533 13.6347 19.4184C14.0427 19.0836 14.3412 18.6344 14.4921 18.1287C14.643 17.623 14.6394 17.0837 14.4816 16.58C14.2817 15.9378 14.2104 15.2625 14.272 14.5927C14.3336 13.9229 14.5268 13.2718 14.8405 12.6768C15.1542 12.0819 15.5822 11.5547 16.1001 11.1254C16.6179 10.6962 17.2154 10.3734 17.8582 10.1755C18.3568 10.0194 18.798 9.7192 19.1264 9.31286C19.4548 8.90651 19.6556 8.41211 19.7037 7.89186C19.7517 7.37161 19.6448 6.84877 19.3964 6.38917C19.148 5.92954 18.7692 5.55365 18.3077 5.30881C17.8461 5.06398 17.3225 4.96111 16.8027 5.01319C16.2828 5.06525 15.79 5.2699 15.3862 5.60142C14.9824 5.93291 14.6856 6.37646 14.5333 6.87621C14.381 7.37596 14.3799 7.9096 14.5302 8.40997C14.9246 9.70175 14.7912 11.0972 14.1592 12.2909C13.5272 13.4846 12.4481 14.3793 11.158 14.7792C10.6487 14.9268 10.1955 15.224 9.85697 15.6322C9.51847 16.0404 9.31029 16.5408 9.2594 17.0686C9.20855 17.5964 9.3173 18.1274 9.5716 18.5927C9.82447 19.0554 10.2096 19.432 10.6777 19.6744C10.6826 19.6769 10.6857 19.682 10.6857 19.6875ZM16.4827 19.5062C16.8025 19.3584 17.1486 19.2759 17.5007 19.2636C17.9333 19.2526 18.362 19.3478 18.7492 19.5407C19.1365 19.7338 19.4706 20.0187 19.7222 20.3706C19.9739 20.7226 20.1356 21.1309 20.193 21.5597C20.2503 21.9886 20.2018 22.425 20.0515 22.8308C19.9012 23.2365 19.6538 23.5993 19.3309 23.8873C19.008 24.1754 18.6195 24.3799 18.1993 24.483C17.7791 24.5862 17.34 24.5848 16.9204 24.4789C16.5009 24.3731 16.1136 24.1662 15.7926 23.8761C15.2995 23.4182 14.7208 23.0622 14.0899 22.8283C13.4589 22.5944 12.788 22.4873 12.1155 22.5131C11.4431 22.539 10.7824 22.6972 10.1712 22.9788C9.56006 23.2604 9.01046 23.6598 8.55387 24.1541C8.25374 24.4652 7.88203 24.698 7.47118 24.8323C7.06036 24.9666 6.62288 24.9982 6.19697 24.9246C5.77107 24.8509 5.36969 24.6742 5.02782 24.4097C4.68595 24.1452 4.41403 23.8011 4.23575 23.4073C4.05747 23.0136 3.9783 22.5822 4.00509 22.1508C4.03192 21.7194 4.16388 21.3011 4.38955 20.9325C4.61518 20.5638 4.9276 20.256 5.2996 20.0359C5.67157 19.8158 6.0918 19.69 6.52354 19.6697C6.87429 19.6559 7.22427 19.7121 7.5531 19.8348C7.88197 19.9576 8.18314 20.1445 8.43913 20.3847C9.42987 21.3016 10.7434 21.7889 12.0924 21.7401C13.4414 21.6913 14.7162 21.1103 15.6381 20.1243C15.8757 19.8641 16.1628 19.654 16.4827 19.5062Z" fill="#6F47EB"/>
</svg>
