<svg width="18" height="18" viewBox="0 0 18 18" fill="none" xmlns="http://www.w3.org/2000/svg">
<path d="M9.04444 15.6665C5.36952 15.691 2.35799 12.7193 2.33349 9.04442C2.309 5.3695 5.28067 2.35797 8.95558 2.33347C12.6305 2.30898 15.642 5.28065 15.6665 8.95556C15.691 12.6305 12.7194 15.642 9.04444 15.6665ZM8.94448 0.666845C4.33624 0.697557 0.636153 4.4473 0.666865 9.05553C0.697576 13.6638 4.44732 17.3639 9.05555 17.3331C13.6638 17.3024 17.3639 13.5527 17.3332 8.94446C17.3024 4.33623 13.5527 0.636133 8.94448 0.666845ZM11.1361 5.65235L8.99218 7.82502L6.81951 5.68112L5.65237 6.86392L7.82504 9.00782L5.68114 11.1805L6.86394 12.3476L9.00784 10.175L11.1805 12.3189L12.3477 11.1361L10.175 8.99216L12.3189 6.81949L11.1361 5.65235Z" fill="white"/>
</svg>
